<svg id="Layer_1" data-name="Layer 1" xmlns="http://www.w3.org/2000/svg" xmlns:xlink="http://www.w3.org/1999/xlink" width="1920" height="1080" viewBox="0 0 1920 1080"><defs><style>.cls-1{fill:#0071bc;}.cls-2{fill:#00a99d;}.cls-3{fill:#39b54a;opacity:0.67;}.cls-4{fill:#3fa9f5;opacity:0.58;}.cls-5{fill:#d9e021;opacity:0.63;}.cls-6,.cls-7{fill:none;}.cls-7{stroke:#7ac943;stroke-miterlimit:10;stroke-width:201.46px;}</style></defs><rect class="cls-1" x="0.18" y="0.26" width="1920.61" height="1080.46"/><path class="cls-2" d="M-8.69.26q-2,544.82-4,1089.63l1332.93-1.83c258.2-80.24,432.51-304.17,431.76-552.16C1751.32,300.76,1593.34,87,1353.94-1.57Z"/><path class="cls-3" d="M2,3.93l-3.6,1089.63,1212.38-1.83c234.85-80.24,393.4-304.17,392.71-552.16C1602.8,304.43,1459.1,90.64,1241.35,2.1Z"/><path class="cls-4" d="M3.33,3.93.18,1093.56l1057.2-1.83c204.79-80.24,343-304.17,342.45-552.16C1399.26,304.43,1274,90.64,1084.08,2.1Z"/><path class="cls-5" d="M-2.6,2.1Q-4,546.92-5.32,1091.73l913.09-1.84c176.88-80.24,296.29-304.16,295.78-552.15C1203.06,302.59,1094.84,88.8,930.84.26Z"/><rect class="cls-6" x="20.24" y="132.71" width="884.81" height="884.81"/><image width="400" height="400" transform="translate(111.51 207.22) scale(1.77)" xlink:href="gamusino-edited.png"/><rect class="cls-6" x="111.51" y="223.98" width="741.38" height="741.38"/><ellipse class="cls-7" cx="454.2" cy="553.82" rx="420.99" ry="403.72"/></svg>