<svg id="Layer_1" data-name="Layer 1" xmlns="http://www.w3.org/2000/svg" width="100" height="100" viewBox="100 100 100 100"><defs><style>.cls-1,.cls-2,.cls-3,.cls-4{fill:none;stroke-miterlimit:10;stroke-width:1.08px;}.cls-1{stroke:#7ac943;}.cls-2{stroke:#0071bc;}.cls-3{stroke:#00a99d;}.cls-4{stroke:#000;}</style></defs><path class="cls-1" d="M24.74,62.56a12.17,12.17,0,0,1-2.56-1.35C17.26,57.76,7,43,13.28,29.82c4.78-10,16-12.6,20.64-13.64,2.13-.49,19.64-4.16,32.71,8,10.19,9.47,10.78,22.13,11,26.76s.79,17.16-8.17,27.26c-9.14,10.32-25.14,14.61-37.72,9.3C11.31,78.86,4.62,46.89,18.27,32.78,28.63,22.08,46.91,25.57,49.11,26A29.76,29.76,0,0,1,65.67,36.35,29.43,29.43,0,0,1,71.89,57.3c-.18,1.72-1.5,12.82-11,19.81s-25.22,8.38-34.65-1c-7.32-7.32-8-18.3-5.6-25.9A21.88,21.88,0,0,1,27.94,39c8.7-6.74,19.56-3.39,20.79-3,1.71.55,10.27,3.34,13.73,11.89a18,18,0,0,1,.81,11.72c-2.41,8.26-10.09,11.85-12.13,12.8C48.41,73.67,42,76.66,35.38,74S23,63.33,25,56.36c2.56-9,16.91-13,24-7.43,3.85,3,6.51,9.65,3.74,14.7C49.46,69.57,41.05,69,40.23,68.89s-6.12-.51-8.49-4.31a5.16,5.16,0,0,1-.94-4.18,4.47,4.47,0,0,1,2.29-2.56,5.32,5.32,0,0,1,3.23-.27c1.28.17,2.24.29,2.83,1.08a3.15,3.15,0,0,1,.27,2.69l-.3.7-.91.79c-1.17.41-2.16-.1-2.29-.68-.1-.42.25-1,.81-1.34C34.73,61.93,29.73,64.37,24.74,62.56Z"/><path class="cls-2" d="M27.6,58.82A12.44,12.44,0,0,1,25,57.47C20.12,54,9.89,39.24,16.15,26.08c4.77-10,16-12.59,20.63-13.64,2.13-.48,19.65-4.16,32.72,8,10.19,9.46,10.78,22.13,11,26.76s.8,17.16-8.16,27.26c-9.15,10.31-25.15,14.6-37.72,9.29C14.18,75.12,7.48,43.16,21.13,29.05,31.49,18.34,49.78,21.83,52,22.28A29.84,29.84,0,0,1,68.54,32.62a29.47,29.47,0,0,1,6.21,21c-.17,1.71-1.5,12.82-11,19.8s-25.23,8.38-34.65-1c-7.33-7.32-8-18.3-5.61-25.9A21.88,21.88,0,0,1,30.8,35.23c8.7-6.73,19.57-3.39,20.8-3,1.7.56,10.26,3.35,13.72,11.9a17.82,17.82,0,0,1,.81,11.72C63.73,64.11,56,67.7,54,68.66c-2.73,1.27-9.13,4.26-15.77,1.61S25.88,59.59,27.87,52.62c2.56-9,16.92-13,24-7.43,3.85,3,6.51,9.66,3.73,14.7-3.26,5.94-11.67,5.33-12.49,5.26s-6.11-.5-8.48-4.31a5.13,5.13,0,0,1-1-4.17A4.43,4.43,0,0,1,36,54.11a5.34,5.34,0,0,1,3.24-.27c1.28.16,2.24.28,2.83,1.07a3.16,3.16,0,0,1,.26,2.7l-.3.7-.91.78c-1.17.41-2.15-.1-2.29-.67a1.47,1.47,0,0,1,.81-1.35C37.59,58.19,32.59,60.63,27.6,58.82Z"/><path class="cls-3" d="M22.87,65a12.69,12.69,0,0,1-2.56-1.34C15.4,60.24,5.16,45.45,11.42,32.3c4.78-10,16-12.6,20.63-13.65,2.14-.48,19.65-4.16,32.72,8C75,36.1,75.55,48.77,75.76,53.4s.8,17.16-8.16,27.26C58.45,91,42.45,95.27,29.88,90,9.45,81.33,2.76,49.37,16.4,35.26,26.76,24.55,45.05,28,47.24,28.49A29.84,29.84,0,0,1,63.81,38.83a29.47,29.47,0,0,1,6.21,21c-.17,1.72-1.5,12.82-11,19.8s-25.23,8.38-34.65-1c-7.33-7.31-8-18.29-5.6-25.9a21.81,21.81,0,0,1,7.34-11.21c8.71-6.73,19.57-3.39,20.8-3,1.7.56,10.26,3.35,13.72,11.9a17.82,17.82,0,0,1,.81,11.72C59,70.33,51.31,73.92,49.28,74.87c-2.73,1.27-9.13,4.26-15.77,1.61S21.15,65.81,23.14,58.84c2.56-9,16.92-13,24-7.43,3.85,3,6.51,9.65,3.74,14.69-3.27,5.94-11.68,5.34-12.5,5.27s-6.11-.51-8.48-4.32a5.13,5.13,0,0,1-.95-4.17,4.46,4.46,0,0,1,2.29-2.56,5.34,5.34,0,0,1,3.24-.27c1.28.16,2.24.28,2.83,1.08a3.19,3.19,0,0,1,.27,2.69l-.31.7-.91.78c-1.16.41-2.15-.1-2.29-.67a1.47,1.47,0,0,1,.81-1.35C32.86,64.41,27.86,66.84,22.87,65Z"/><path class="cls-4" d="M26.61,61.17a12.69,12.69,0,0,1-2.56-1.34C19.13,56.38,8.9,41.59,15.16,28.44c4.77-10,16-12.6,20.63-13.65,2.13-.48,19.64-4.16,32.72,8,10.19,9.46,10.77,22.13,11,26.76s.79,17.16-8.17,27.26c-9.14,10.31-25.14,14.6-37.72,9.3C13.18,77.47,6.49,45.51,20.14,31.4,30.5,20.69,48.78,24.18,51,24.63A29.79,29.79,0,0,1,67.54,35a29.41,29.41,0,0,1,6.22,21c-.18,1.72-1.5,12.82-11.05,19.8s-25.22,8.38-34.64-1c-7.33-7.31-8-18.29-5.61-25.9a21.92,21.92,0,0,1,7.35-11.21c8.7-6.73,19.56-3.39,20.8-3,1.7.56,10.26,3.35,13.72,11.9a18,18,0,0,1,.81,11.72C62.73,66.47,55.05,70.06,53,71c-2.73,1.27-9.12,4.26-15.76,1.61S24.89,62,26.88,55c2.56-9,16.91-13,24-7.43,3.84,3,6.5,9.65,3.73,14.69-3.26,5.94-11.67,5.34-12.49,5.26S36,67,33.61,63.19A5.17,5.17,0,0,1,32.67,59,4.43,4.43,0,0,1,35,56.46a5.32,5.32,0,0,1,3.23-.27c1.29.16,2.24.28,2.83,1.08A3.15,3.15,0,0,1,41.29,60l-.3.7-.91.78c-1.17.41-2.16-.1-2.29-.67a1.47,1.47,0,0,1,.81-1.35C36.6,60.55,31.6,63,26.61,61.17Z"/></svg>